<mxfile host="app.diagrams.net" modified="2023-07-24T06:47:33.209Z" agent="Mozilla/5.0 (Windows NT 10.0; Win64; x64) AppleWebKit/537.36 (KHTML, like Gecko) Chrome/115.0.0.0 Safari/537.36" etag="giskXi01qZ-6ZujzzrFI" version="21.6.5" type="github" pages="2">
  <diagram name="페이지-1" id="hIhTeIeGfCXAl0Gwc9g0">
    <mxGraphModel dx="835" dy="723" grid="1" gridSize="10" guides="1" tooltips="1" connect="1" arrows="1" fold="1" page="1" pageScale="1" pageWidth="827" pageHeight="1169" math="0" shadow="0">
      <root>
        <mxCell id="0" />
        <mxCell id="1" parent="0" />
        <mxCell id="rJYeCuxyrsGws1Wmajk5-1" value="고객" style="whiteSpace=wrap;html=1;align=center;fontSize=12;" parent="1" vertex="1">
          <mxGeometry x="190" y="350" width="170" height="40" as="geometry" />
        </mxCell>
        <mxCell id="rJYeCuxyrsGws1Wmajk5-2" value="고객명" style="ellipse;whiteSpace=wrap;html=1;align=center;" parent="1" vertex="1">
          <mxGeometry x="230" y="260" width="100" height="40" as="geometry" />
        </mxCell>
        <mxCell id="rJYeCuxyrsGws1Wmajk5-5" value="" style="endArrow=none;html=1;rounded=0;exitX=0.5;exitY=1;exitDx=0;exitDy=0;entryX=0.5;entryY=0;entryDx=0;entryDy=0;" parent="1" source="rJYeCuxyrsGws1Wmajk5-2" target="rJYeCuxyrsGws1Wmajk5-1" edge="1">
          <mxGeometry relative="1" as="geometry">
            <mxPoint x="220" y="380" as="sourcePoint" />
            <mxPoint x="380" y="380" as="targetPoint" />
          </mxGeometry>
        </mxCell>
        <mxCell id="rJYeCuxyrsGws1Wmajk5-6" value="&lt;u&gt;전화번호&lt;/u&gt;" style="ellipse;whiteSpace=wrap;html=1;align=center;" parent="1" vertex="1">
          <mxGeometry x="340" y="270" width="100" height="40" as="geometry" />
        </mxCell>
        <mxCell id="rJYeCuxyrsGws1Wmajk5-7" value="&lt;u&gt;이메일&lt;/u&gt;" style="ellipse;whiteSpace=wrap;html=1;align=center;" parent="1" vertex="1">
          <mxGeometry x="60" y="430" width="100" height="40" as="geometry" />
        </mxCell>
        <mxCell id="rJYeCuxyrsGws1Wmajk5-8" value="주소" style="ellipse;whiteSpace=wrap;html=1;align=center;" parent="1" vertex="1">
          <mxGeometry x="40" y="380" width="100" height="40" as="geometry" />
        </mxCell>
        <mxCell id="rJYeCuxyrsGws1Wmajk5-9" value="지역" style="ellipse;whiteSpace=wrap;html=1;align=center;" parent="1" vertex="1">
          <mxGeometry x="50" y="320" width="100" height="40" as="geometry" />
        </mxCell>
        <mxCell id="rJYeCuxyrsGws1Wmajk5-10" value="가입일" style="ellipse;whiteSpace=wrap;html=1;align=center;" parent="1" vertex="1">
          <mxGeometry x="120" y="280" width="100" height="40" as="geometry" />
        </mxCell>
        <mxCell id="rJYeCuxyrsGws1Wmajk5-11" value="" style="endArrow=none;html=1;rounded=0;entryX=0.5;entryY=1;entryDx=0;entryDy=0;exitX=0.5;exitY=0;exitDx=0;exitDy=0;" parent="1" source="rJYeCuxyrsGws1Wmajk5-1" target="rJYeCuxyrsGws1Wmajk5-10" edge="1">
          <mxGeometry relative="1" as="geometry">
            <mxPoint x="220" y="380" as="sourcePoint" />
            <mxPoint x="380" y="380" as="targetPoint" />
          </mxGeometry>
        </mxCell>
        <mxCell id="rJYeCuxyrsGws1Wmajk5-12" value="" style="endArrow=none;html=1;rounded=0;exitX=0;exitY=0.5;exitDx=0;exitDy=0;" parent="1" source="rJYeCuxyrsGws1Wmajk5-1" target="rJYeCuxyrsGws1Wmajk5-9" edge="1">
          <mxGeometry relative="1" as="geometry">
            <mxPoint x="220" y="380" as="sourcePoint" />
            <mxPoint x="380" y="380" as="targetPoint" />
          </mxGeometry>
        </mxCell>
        <mxCell id="rJYeCuxyrsGws1Wmajk5-13" value="" style="endArrow=none;html=1;rounded=0;entryX=1;entryY=0.5;entryDx=0;entryDy=0;" parent="1" target="rJYeCuxyrsGws1Wmajk5-8" edge="1">
          <mxGeometry relative="1" as="geometry">
            <mxPoint x="190" y="370" as="sourcePoint" />
            <mxPoint x="380" y="380" as="targetPoint" />
          </mxGeometry>
        </mxCell>
        <mxCell id="rJYeCuxyrsGws1Wmajk5-14" value="" style="endArrow=none;html=1;rounded=0;entryX=0.075;entryY=0.857;entryDx=0;entryDy=0;exitX=0.5;exitY=0;exitDx=0;exitDy=0;entryPerimeter=0;" parent="1" source="rJYeCuxyrsGws1Wmajk5-1" target="rJYeCuxyrsGws1Wmajk5-6" edge="1">
          <mxGeometry relative="1" as="geometry">
            <mxPoint x="220" y="380" as="sourcePoint" />
            <mxPoint x="340" y="300" as="targetPoint" />
          </mxGeometry>
        </mxCell>
        <mxCell id="rJYeCuxyrsGws1Wmajk5-15" value="" style="endArrow=none;html=1;rounded=0;entryX=1.01;entryY=0.275;entryDx=0;entryDy=0;exitX=0.5;exitY=1;exitDx=0;exitDy=0;entryPerimeter=0;" parent="1" source="rJYeCuxyrsGws1Wmajk5-1" target="rJYeCuxyrsGws1Wmajk5-7" edge="1">
          <mxGeometry relative="1" as="geometry">
            <mxPoint x="220" y="380" as="sourcePoint" />
            <mxPoint x="380" y="380" as="targetPoint" />
          </mxGeometry>
        </mxCell>
        <mxCell id="rJYeCuxyrsGws1Wmajk5-17" value="&lt;u&gt;고객코드&lt;/u&gt;" style="ellipse;whiteSpace=wrap;html=1;align=center;" parent="1" vertex="1">
          <mxGeometry x="160" y="450" width="100" height="40" as="geometry" />
        </mxCell>
        <mxCell id="rJYeCuxyrsGws1Wmajk5-18" value="" style="endArrow=none;html=1;rounded=0;entryX=0.5;entryY=0;entryDx=0;entryDy=0;exitX=0.5;exitY=1;exitDx=0;exitDy=0;" parent="1" source="rJYeCuxyrsGws1Wmajk5-1" target="rJYeCuxyrsGws1Wmajk5-17" edge="1">
          <mxGeometry relative="1" as="geometry">
            <mxPoint x="360" y="370" as="sourcePoint" />
            <mxPoint x="380" y="380" as="targetPoint" />
          </mxGeometry>
        </mxCell>
        <mxCell id="INN9w462Z8EMDwI8fEhA-1" value="지역" style="rounded=0;whiteSpace=wrap;html=1;" vertex="1" parent="1">
          <mxGeometry x="210" y="660" width="120" height="60" as="geometry" />
        </mxCell>
        <mxCell id="INN9w462Z8EMDwI8fEhA-2" value="&lt;u&gt;&lt;font color=&quot;#ff0000&quot;&gt;지역코드&lt;/font&gt;&lt;/u&gt;" style="ellipse;whiteSpace=wrap;html=1;align=center;" vertex="1" parent="1">
          <mxGeometry x="20" y="620" width="100" height="40" as="geometry" />
        </mxCell>
        <mxCell id="INN9w462Z8EMDwI8fEhA-3" value="지역명" style="ellipse;whiteSpace=wrap;html=1;align=center;" vertex="1" parent="1">
          <mxGeometry x="20" y="690" width="100" height="40" as="geometry" />
        </mxCell>
        <mxCell id="INN9w462Z8EMDwI8fEhA-4" value="" style="endArrow=none;html=1;rounded=0;entryX=1;entryY=0.5;entryDx=0;entryDy=0;exitX=0;exitY=0.5;exitDx=0;exitDy=0;" edge="1" parent="1" source="INN9w462Z8EMDwI8fEhA-1" target="INN9w462Z8EMDwI8fEhA-2">
          <mxGeometry relative="1" as="geometry">
            <mxPoint x="235" y="610" as="sourcePoint" />
            <mxPoint x="120" y="660" as="targetPoint" />
          </mxGeometry>
        </mxCell>
        <mxCell id="INN9w462Z8EMDwI8fEhA-8" value="" style="endArrow=none;html=1;rounded=0;entryX=0.5;entryY=0;entryDx=0;entryDy=0;exitX=0;exitY=0.5;exitDx=0;exitDy=0;" edge="1" parent="1" source="INN9w462Z8EMDwI8fEhA-1">
          <mxGeometry relative="1" as="geometry">
            <mxPoint x="235" y="660" as="sourcePoint" />
            <mxPoint x="120" y="710" as="targetPoint" />
          </mxGeometry>
        </mxCell>
        <mxCell id="INN9w462Z8EMDwI8fEhA-9" value="구매수량" style="ellipse;whiteSpace=wrap;html=1;align=center;" vertex="1" parent="1">
          <mxGeometry x="530" y="270" width="100" height="40" as="geometry" />
        </mxCell>
        <mxCell id="INN9w462Z8EMDwI8fEhA-10" value="제품" style="rounded=0;whiteSpace=wrap;html=1;" vertex="1" parent="1">
          <mxGeometry x="520" y="440" width="120" height="60" as="geometry" />
        </mxCell>
        <mxCell id="INN9w462Z8EMDwI8fEhA-11" value="&lt;u&gt;&lt;font color=&quot;#ff0000&quot;&gt;제품코드&lt;/font&gt;&lt;/u&gt;" style="ellipse;whiteSpace=wrap;html=1;align=center;" vertex="1" parent="1">
          <mxGeometry x="530" y="350" width="100" height="40" as="geometry" />
        </mxCell>
        <mxCell id="INN9w462Z8EMDwI8fEhA-13" value="" style="endArrow=none;html=1;rounded=0;entryX=0.5;entryY=0;entryDx=0;entryDy=0;exitX=0.5;exitY=1;exitDx=0;exitDy=0;" edge="1" parent="1">
          <mxGeometry relative="1" as="geometry">
            <mxPoint x="579.5" y="390" as="sourcePoint" />
            <mxPoint x="579.5" y="440" as="targetPoint" />
          </mxGeometry>
        </mxCell>
        <mxCell id="INN9w462Z8EMDwI8fEhA-14" value="제품구분" style="ellipse;whiteSpace=wrap;html=1;align=center;" vertex="1" parent="1">
          <mxGeometry x="680" y="400" width="100" height="40" as="geometry" />
        </mxCell>
        <mxCell id="INN9w462Z8EMDwI8fEhA-15" value="제품명" style="ellipse;whiteSpace=wrap;html=1;align=center;" vertex="1" parent="1">
          <mxGeometry x="640" y="350" width="100" height="40" as="geometry" />
        </mxCell>
        <mxCell id="INN9w462Z8EMDwI8fEhA-17" value="제품색상" style="ellipse;shape=doubleEllipse;margin=3;whiteSpace=wrap;html=1;align=center;" vertex="1" parent="1">
          <mxGeometry x="720" y="450" width="100" height="40" as="geometry" />
        </mxCell>
        <mxCell id="INN9w462Z8EMDwI8fEhA-18" value="가격" style="ellipse;whiteSpace=wrap;html=1;align=center;" vertex="1" parent="1">
          <mxGeometry x="670" y="500" width="100" height="40" as="geometry" />
        </mxCell>
        <mxCell id="INN9w462Z8EMDwI8fEhA-19" value="" style="endArrow=none;html=1;rounded=0;entryX=0.5;entryY=1;entryDx=0;entryDy=0;exitX=0.5;exitY=0;exitDx=0;exitDy=0;" edge="1" parent="1" source="INN9w462Z8EMDwI8fEhA-10" target="INN9w462Z8EMDwI8fEhA-15">
          <mxGeometry relative="1" as="geometry">
            <mxPoint x="680" y="280" as="sourcePoint" />
            <mxPoint x="680" y="330" as="targetPoint" />
          </mxGeometry>
        </mxCell>
        <mxCell id="INN9w462Z8EMDwI8fEhA-20" value="" style="endArrow=none;html=1;rounded=0;entryX=0;entryY=1;entryDx=0;entryDy=0;exitX=0.5;exitY=0;exitDx=0;exitDy=0;" edge="1" parent="1" target="INN9w462Z8EMDwI8fEhA-14">
          <mxGeometry relative="1" as="geometry">
            <mxPoint x="640" y="470" as="sourcePoint" />
            <mxPoint x="750" y="420" as="targetPoint" />
          </mxGeometry>
        </mxCell>
        <mxCell id="INN9w462Z8EMDwI8fEhA-21" value="" style="endArrow=none;html=1;rounded=0;entryX=0;entryY=0.5;entryDx=0;entryDy=0;" edge="1" parent="1" target="INN9w462Z8EMDwI8fEhA-17">
          <mxGeometry relative="1" as="geometry">
            <mxPoint x="640" y="470" as="sourcePoint" />
            <mxPoint x="705" y="464" as="targetPoint" />
          </mxGeometry>
        </mxCell>
        <mxCell id="INN9w462Z8EMDwI8fEhA-22" value="" style="endArrow=none;html=1;rounded=0;entryX=0;entryY=0.5;entryDx=0;entryDy=0;" edge="1" parent="1" target="INN9w462Z8EMDwI8fEhA-18">
          <mxGeometry relative="1" as="geometry">
            <mxPoint x="640" y="470" as="sourcePoint" />
            <mxPoint x="720" y="480" as="targetPoint" />
          </mxGeometry>
        </mxCell>
        <mxCell id="INN9w462Z8EMDwI8fEhA-24" value="관리" style="shape=rhombus;perimeter=rhombusPerimeter;whiteSpace=wrap;html=1;align=center;" vertex="1" parent="1">
          <mxGeometry x="210" y="540" width="120" height="60" as="geometry" />
        </mxCell>
        <mxCell id="INN9w462Z8EMDwI8fEhA-25" value="" style="endArrow=none;html=1;rounded=0;entryX=0.5;entryY=0;entryDx=0;entryDy=0;exitX=0.5;exitY=1;exitDx=0;exitDy=0;" edge="1" parent="1" source="INN9w462Z8EMDwI8fEhA-24" target="INN9w462Z8EMDwI8fEhA-1">
          <mxGeometry relative="1" as="geometry">
            <mxPoint x="270" y="590" as="sourcePoint" />
            <mxPoint x="310" y="570" as="targetPoint" />
          </mxGeometry>
        </mxCell>
        <mxCell id="INN9w462Z8EMDwI8fEhA-26" value="" style="endArrow=none;html=1;rounded=0;entryX=0;entryY=0.5;entryDx=0;entryDy=0;exitX=1;exitY=0.5;exitDx=0;exitDy=0;" edge="1" parent="1" source="rJYeCuxyrsGws1Wmajk5-1" target="INN9w462Z8EMDwI8fEhA-27">
          <mxGeometry relative="1" as="geometry">
            <mxPoint x="392.5" y="420" as="sourcePoint" />
            <mxPoint x="387.5" y="570" as="targetPoint" />
          </mxGeometry>
        </mxCell>
        <mxCell id="INN9w462Z8EMDwI8fEhA-27" value="구매" style="shape=rhombus;perimeter=rhombusPerimeter;whiteSpace=wrap;html=1;align=center;" vertex="1" parent="1">
          <mxGeometry x="380" y="380" width="120" height="60" as="geometry" />
        </mxCell>
        <mxCell id="INN9w462Z8EMDwI8fEhA-28" value="구매속성" style="ellipse;whiteSpace=wrap;html=1;align=center;" vertex="1" parent="1">
          <mxGeometry x="450" y="200" width="100" height="40" as="geometry" />
        </mxCell>
        <mxCell id="INN9w462Z8EMDwI8fEhA-29" value="" style="endArrow=none;html=1;rounded=0;entryX=0.5;entryY=0;entryDx=0;entryDy=0;exitX=0.5;exitY=1;exitDx=0;exitDy=0;" edge="1" parent="1" source="rJYeCuxyrsGws1Wmajk5-1" target="INN9w462Z8EMDwI8fEhA-24">
          <mxGeometry relative="1" as="geometry">
            <mxPoint x="300" y="470" as="sourcePoint" />
            <mxPoint x="300" y="530" as="targetPoint" />
          </mxGeometry>
        </mxCell>
        <mxCell id="INN9w462Z8EMDwI8fEhA-30" value="" style="endArrow=none;html=1;rounded=0;entryX=0;entryY=0.5;entryDx=0;entryDy=0;exitX=1;exitY=0.5;exitDx=0;exitDy=0;" edge="1" parent="1" source="INN9w462Z8EMDwI8fEhA-27" target="INN9w462Z8EMDwI8fEhA-10">
          <mxGeometry relative="1" as="geometry">
            <mxPoint x="419" y="420" as="sourcePoint" />
            <mxPoint x="414" y="570" as="targetPoint" />
          </mxGeometry>
        </mxCell>
        <mxCell id="INN9w462Z8EMDwI8fEhA-32" value="" style="endArrow=none;html=1;rounded=0;entryX=0.5;entryY=1;entryDx=0;entryDy=0;exitX=0.5;exitY=0;exitDx=0;exitDy=0;" edge="1" parent="1" source="INN9w462Z8EMDwI8fEhA-27" target="INN9w462Z8EMDwI8fEhA-28">
          <mxGeometry relative="1" as="geometry">
            <mxPoint x="400" y="355.72" as="sourcePoint" />
            <mxPoint x="473" y="309.72" as="targetPoint" />
          </mxGeometry>
        </mxCell>
        <mxCell id="INN9w462Z8EMDwI8fEhA-33" value="" style="endArrow=none;html=1;rounded=0;entryX=0;entryY=0.5;entryDx=0;entryDy=0;exitX=0.5;exitY=0;exitDx=0;exitDy=0;" edge="1" parent="1" source="INN9w462Z8EMDwI8fEhA-27" target="INN9w462Z8EMDwI8fEhA-9">
          <mxGeometry relative="1" as="geometry">
            <mxPoint x="460" y="380" as="sourcePoint" />
            <mxPoint x="500" y="230" as="targetPoint" />
          </mxGeometry>
        </mxCell>
        <mxCell id="INN9w462Z8EMDwI8fEhA-34" value="Conceptual Data Modeling(ERD) : 개념적 모델링" style="rounded=0;whiteSpace=wrap;html=1;" vertex="1" parent="1">
          <mxGeometry x="254" y="110" width="286" height="30" as="geometry" />
        </mxCell>
      </root>
    </mxGraphModel>
  </diagram>
  <diagram id="3kvkZ-TdSsMNduRRpYCU" name="페이지-2">
    <mxGraphModel dx="835" dy="723" grid="1" gridSize="10" guides="1" tooltips="1" connect="1" arrows="1" fold="1" page="1" pageScale="1" pageWidth="827" pageHeight="1169" math="0" shadow="0">
      <root>
        <mxCell id="0" />
        <mxCell id="1" parent="0" />
        <mxCell id="WsUZuzXkE713Gy9AiNuK-1" value="Logical Data Modeling(RM) : 논리적 모델링" style="rounded=0;whiteSpace=wrap;html=1;" vertex="1" parent="1">
          <mxGeometry x="254" y="110" width="246" height="30" as="geometry" />
        </mxCell>
        <mxCell id="k9DQfn7tBpJQosYDss4M-1" value="고객" style="whiteSpace=wrap;html=1;align=center;fontSize=12;" vertex="1" parent="1">
          <mxGeometry x="190" y="350" width="170" height="40" as="geometry" />
        </mxCell>
        <mxCell id="k9DQfn7tBpJQosYDss4M-2" value="고객명" style="ellipse;whiteSpace=wrap;html=1;align=center;" vertex="1" parent="1">
          <mxGeometry x="230" y="260" width="100" height="40" as="geometry" />
        </mxCell>
        <mxCell id="k9DQfn7tBpJQosYDss4M-3" value="" style="endArrow=none;html=1;rounded=0;exitX=0.5;exitY=1;exitDx=0;exitDy=0;entryX=0.5;entryY=0;entryDx=0;entryDy=0;" edge="1" parent="1" source="k9DQfn7tBpJQosYDss4M-2" target="k9DQfn7tBpJQosYDss4M-1">
          <mxGeometry relative="1" as="geometry">
            <mxPoint x="220" y="380" as="sourcePoint" />
            <mxPoint x="380" y="380" as="targetPoint" />
          </mxGeometry>
        </mxCell>
        <mxCell id="k9DQfn7tBpJQosYDss4M-4" value="&lt;u&gt;전화번호&lt;/u&gt;" style="ellipse;whiteSpace=wrap;html=1;align=center;" vertex="1" parent="1">
          <mxGeometry x="340" y="270" width="100" height="40" as="geometry" />
        </mxCell>
        <mxCell id="k9DQfn7tBpJQosYDss4M-5" value="&lt;u&gt;이메일&lt;/u&gt;" style="ellipse;whiteSpace=wrap;html=1;align=center;" vertex="1" parent="1">
          <mxGeometry x="60" y="430" width="100" height="40" as="geometry" />
        </mxCell>
        <mxCell id="k9DQfn7tBpJQosYDss4M-6" value="주소" style="ellipse;whiteSpace=wrap;html=1;align=center;" vertex="1" parent="1">
          <mxGeometry x="40" y="380" width="100" height="40" as="geometry" />
        </mxCell>
        <mxCell id="k9DQfn7tBpJQosYDss4M-7" value="지역" style="ellipse;whiteSpace=wrap;html=1;align=center;" vertex="1" parent="1">
          <mxGeometry x="50" y="320" width="100" height="40" as="geometry" />
        </mxCell>
        <mxCell id="k9DQfn7tBpJQosYDss4M-8" value="가입일" style="ellipse;whiteSpace=wrap;html=1;align=center;" vertex="1" parent="1">
          <mxGeometry x="120" y="280" width="100" height="40" as="geometry" />
        </mxCell>
        <mxCell id="k9DQfn7tBpJQosYDss4M-9" value="" style="endArrow=none;html=1;rounded=0;entryX=0.5;entryY=1;entryDx=0;entryDy=0;exitX=0.5;exitY=0;exitDx=0;exitDy=0;" edge="1" parent="1" source="k9DQfn7tBpJQosYDss4M-1" target="k9DQfn7tBpJQosYDss4M-8">
          <mxGeometry relative="1" as="geometry">
            <mxPoint x="220" y="380" as="sourcePoint" />
            <mxPoint x="380" y="380" as="targetPoint" />
          </mxGeometry>
        </mxCell>
        <mxCell id="k9DQfn7tBpJQosYDss4M-10" value="" style="endArrow=none;html=1;rounded=0;exitX=0;exitY=0.5;exitDx=0;exitDy=0;" edge="1" parent="1" source="k9DQfn7tBpJQosYDss4M-1" target="k9DQfn7tBpJQosYDss4M-7">
          <mxGeometry relative="1" as="geometry">
            <mxPoint x="220" y="380" as="sourcePoint" />
            <mxPoint x="380" y="380" as="targetPoint" />
          </mxGeometry>
        </mxCell>
        <mxCell id="k9DQfn7tBpJQosYDss4M-11" value="" style="endArrow=none;html=1;rounded=0;entryX=1;entryY=0.5;entryDx=0;entryDy=0;" edge="1" parent="1" target="k9DQfn7tBpJQosYDss4M-6">
          <mxGeometry relative="1" as="geometry">
            <mxPoint x="190" y="370" as="sourcePoint" />
            <mxPoint x="380" y="380" as="targetPoint" />
          </mxGeometry>
        </mxCell>
        <mxCell id="k9DQfn7tBpJQosYDss4M-12" value="" style="endArrow=none;html=1;rounded=0;entryX=0.075;entryY=0.857;entryDx=0;entryDy=0;exitX=0.5;exitY=0;exitDx=0;exitDy=0;entryPerimeter=0;" edge="1" parent="1" source="k9DQfn7tBpJQosYDss4M-1" target="k9DQfn7tBpJQosYDss4M-4">
          <mxGeometry relative="1" as="geometry">
            <mxPoint x="220" y="380" as="sourcePoint" />
            <mxPoint x="340" y="300" as="targetPoint" />
          </mxGeometry>
        </mxCell>
        <mxCell id="k9DQfn7tBpJQosYDss4M-13" value="" style="endArrow=none;html=1;rounded=0;entryX=1.01;entryY=0.275;entryDx=0;entryDy=0;exitX=0.5;exitY=1;exitDx=0;exitDy=0;entryPerimeter=0;" edge="1" parent="1" source="k9DQfn7tBpJQosYDss4M-1" target="k9DQfn7tBpJQosYDss4M-5">
          <mxGeometry relative="1" as="geometry">
            <mxPoint x="220" y="380" as="sourcePoint" />
            <mxPoint x="380" y="380" as="targetPoint" />
          </mxGeometry>
        </mxCell>
        <mxCell id="k9DQfn7tBpJQosYDss4M-14" value="&lt;u&gt;고객코드&lt;/u&gt;" style="ellipse;whiteSpace=wrap;html=1;align=center;" vertex="1" parent="1">
          <mxGeometry x="160" y="450" width="100" height="40" as="geometry" />
        </mxCell>
        <mxCell id="k9DQfn7tBpJQosYDss4M-15" value="" style="endArrow=none;html=1;rounded=0;entryX=0.5;entryY=0;entryDx=0;entryDy=0;exitX=0.5;exitY=1;exitDx=0;exitDy=0;" edge="1" parent="1" source="k9DQfn7tBpJQosYDss4M-1" target="k9DQfn7tBpJQosYDss4M-14">
          <mxGeometry relative="1" as="geometry">
            <mxPoint x="360" y="370" as="sourcePoint" />
            <mxPoint x="380" y="380" as="targetPoint" />
          </mxGeometry>
        </mxCell>
        <mxCell id="k9DQfn7tBpJQosYDss4M-18" value="고객" style="swimlane;childLayout=stackLayout;horizontal=1;startSize=50;horizontalStack=0;rounded=1;fontSize=14;fontStyle=0;strokeWidth=2;resizeParent=0;resizeLast=1;shadow=0;dashed=0;align=center;arcSize=4;whiteSpace=wrap;html=1;" vertex="1" parent="1">
          <mxGeometry x="430" y="330" width="160" height="170" as="geometry" />
        </mxCell>
        <mxCell id="k9DQfn7tBpJQosYDss4M-19" value="-고객번호(PK)&lt;br&gt;-고객이름&lt;br&gt;-전화번호&lt;br&gt;-이메일&lt;br&gt;주소&lt;br&gt;-가입일&lt;br&gt;&lt;font color=&quot;#ff0000&quot;&gt;-지역코드(FK)&lt;/font&gt;" style="align=left;strokeColor=none;fillColor=none;spacingLeft=4;fontSize=12;verticalAlign=top;resizable=0;rotatable=0;part=1;html=1;" vertex="1" parent="k9DQfn7tBpJQosYDss4M-18">
          <mxGeometry y="50" width="160" height="120" as="geometry" />
        </mxCell>
        <mxCell id="xiZcCLCtoIJGps4jNcMG-1" value="지역" style="rounded=0;whiteSpace=wrap;html=1;" vertex="1" parent="1">
          <mxGeometry x="200" y="625" width="120" height="60" as="geometry" />
        </mxCell>
        <mxCell id="xiZcCLCtoIJGps4jNcMG-2" value="&lt;u&gt;&lt;font color=&quot;#ff0000&quot;&gt;지역코드&lt;/font&gt;&lt;/u&gt;" style="ellipse;whiteSpace=wrap;html=1;align=center;" vertex="1" parent="1">
          <mxGeometry x="50" y="585" width="100" height="40" as="geometry" />
        </mxCell>
        <mxCell id="xiZcCLCtoIJGps4jNcMG-3" value="지역명" style="ellipse;whiteSpace=wrap;html=1;align=center;" vertex="1" parent="1">
          <mxGeometry x="50" y="655" width="100" height="40" as="geometry" />
        </mxCell>
        <mxCell id="xiZcCLCtoIJGps4jNcMG-4" value="" style="endArrow=none;html=1;rounded=0;entryX=1;entryY=0.5;entryDx=0;entryDy=0;exitX=0;exitY=0.5;exitDx=0;exitDy=0;" edge="1" parent="1" source="xiZcCLCtoIJGps4jNcMG-1" target="xiZcCLCtoIJGps4jNcMG-2">
          <mxGeometry relative="1" as="geometry">
            <mxPoint x="265" y="575" as="sourcePoint" />
            <mxPoint x="150" y="625" as="targetPoint" />
          </mxGeometry>
        </mxCell>
        <mxCell id="xiZcCLCtoIJGps4jNcMG-5" value="" style="endArrow=none;html=1;rounded=0;entryX=0.5;entryY=0;entryDx=0;entryDy=0;exitX=0;exitY=0.5;exitDx=0;exitDy=0;" edge="1" parent="1" source="xiZcCLCtoIJGps4jNcMG-1">
          <mxGeometry relative="1" as="geometry">
            <mxPoint x="265" y="625" as="sourcePoint" />
            <mxPoint x="150" y="675" as="targetPoint" />
          </mxGeometry>
        </mxCell>
        <mxCell id="xiZcCLCtoIJGps4jNcMG-6" value="지역" style="swimlane;childLayout=stackLayout;horizontal=1;startSize=50;horizontalStack=0;rounded=1;fontSize=14;fontStyle=0;strokeWidth=2;resizeParent=0;resizeLast=1;shadow=0;dashed=0;align=center;arcSize=4;whiteSpace=wrap;html=1;" vertex="1" parent="1">
          <mxGeometry x="650" y="360" width="160" height="100" as="geometry" />
        </mxCell>
        <mxCell id="xiZcCLCtoIJGps4jNcMG-7" value="&lt;font color=&quot;#ff0000&quot;&gt;-지역코드(FK)&lt;br&gt;&lt;/font&gt;-지역명" style="align=left;strokeColor=none;fillColor=none;spacingLeft=4;fontSize=12;verticalAlign=top;resizable=0;rotatable=0;part=1;html=1;" vertex="1" parent="xiZcCLCtoIJGps4jNcMG-6">
          <mxGeometry y="50" width="160" height="50" as="geometry" />
        </mxCell>
        <mxCell id="xiZcCLCtoIJGps4jNcMG-8" style="edgeStyle=orthogonalEdgeStyle;rounded=0;orthogonalLoop=1;jettySize=auto;html=1;exitX=0.5;exitY=1;exitDx=0;exitDy=0;" edge="1" parent="xiZcCLCtoIJGps4jNcMG-6" source="xiZcCLCtoIJGps4jNcMG-7" target="xiZcCLCtoIJGps4jNcMG-7">
          <mxGeometry relative="1" as="geometry" />
        </mxCell>
        <mxCell id="xiZcCLCtoIJGps4jNcMG-9" style="edgeStyle=orthogonalEdgeStyle;rounded=0;orthogonalLoop=1;jettySize=auto;html=1;exitX=0.5;exitY=1;exitDx=0;exitDy=0;" edge="1" parent="xiZcCLCtoIJGps4jNcMG-6" source="xiZcCLCtoIJGps4jNcMG-7" target="xiZcCLCtoIJGps4jNcMG-7">
          <mxGeometry relative="1" as="geometry" />
        </mxCell>
        <mxCell id="nWi9_35RvACSwM7pB_gb-2" value="관리" style="shape=rhombus;perimeter=rhombusPerimeter;whiteSpace=wrap;html=1;align=center;" vertex="1" parent="1">
          <mxGeometry x="210" y="500" width="120" height="60" as="geometry" />
        </mxCell>
        <mxCell id="nWi9_35RvACSwM7pB_gb-3" value="" style="endArrow=none;html=1;rounded=0;entryX=0.583;entryY=-0.033;entryDx=0;entryDy=0;exitX=0.5;exitY=1;exitDx=0;exitDy=0;entryPerimeter=0;" edge="1" parent="1" source="nWi9_35RvACSwM7pB_gb-2" target="xiZcCLCtoIJGps4jNcMG-1">
          <mxGeometry relative="1" as="geometry">
            <mxPoint x="314" y="520" as="sourcePoint" />
            <mxPoint x="314" y="590" as="targetPoint" />
          </mxGeometry>
        </mxCell>
        <mxCell id="nWi9_35RvACSwM7pB_gb-4" value="" style="endArrow=none;html=1;rounded=0;entryX=0.5;entryY=0;entryDx=0;entryDy=0;exitX=0.5;exitY=1;exitDx=0;exitDy=0;" edge="1" parent="1" target="nWi9_35RvACSwM7pB_gb-2" source="k9DQfn7tBpJQosYDss4M-1">
          <mxGeometry relative="1" as="geometry">
            <mxPoint x="319" y="320" as="sourcePoint" />
            <mxPoint x="344" y="460" as="targetPoint" />
          </mxGeometry>
        </mxCell>
      </root>
    </mxGraphModel>
  </diagram>
</mxfile>
